<?xml version="1.0" encoding="utf-8"?>
<!-- Generator: Adobe Illustrator 17.1.0, SVG Export Plug-In . SVG Version: 6.00 Build 0)  -->
<!DOCTYPE svg PUBLIC "-//W3C//DTD SVG 1.1//EN" "http://www.w3.org/Graphics/SVG/1.1/DTD/svg11.dtd">
<svg version="1.1" id="Capa_1" xmlns="http://www.w3.org/2000/svg" xmlns:xlink="http://www.w3.org/1999/xlink" x="0px" y="0px"
	 viewBox="0 0 617.5 185.5" enable-background="new 0 0 617.5 185.5" xml:space="preserve">
<g>
	<path fill="#6E1724" d="M35.1,130h71c2.4,0,4.4-2,4.4-4.4V82.3C78.6,86.2,52.2,104.4,35.1,130"/>
	<path fill="#6E1724" d="M21.6,122.4v3.2c0,2.3,1.8,4.2,4,4.4c18.4-30.3,48.5-52,84.9-55.6v-7C73.7,70.7,44.1,91.3,21.6,122.4"/>
	<path fill="#6E1724" d="M126.9,56.4L69.4,5.5c-1.8-1.6-4.8-1.6-6.7,0L5.2,56.4c-1.8,1.6-1.3,2.9,1.1,2.9h15.3v50.1
		c23.3-28.5,53.6-47.3,88.9-50v0h15.3C128.2,59.4,128.7,58,126.9,56.4"/>
	<path fill="#74777E" d="M205.2,68.8h7.8v26.9h0.2c1.2-2.2,3.2-4.3,5.6-5.5c2.3-1.4,5.1-2.2,8-2.2c5.8,0,15,3.5,15,18.4v25.6H234
		v-24.7c0-7-2.6-12.8-9.9-12.8c-5.1,0-9,3.6-10.5,7.8c-0.5,1.1-0.5,2.2-0.5,3.7v25.9h-7.8V68.8z"/>
	<path fill="#74777E" d="M258.3,81c-2.9,0-4.9-2.3-4.9-5.1c0-2.8,2-5,5.1-5c3,0,5,2.2,5,5C263.4,78.7,261.5,81,258.3,81L258.3,81z
		 M254.5,88.9h7.8v43h-7.8V88.9z"/>
	<path fill="#74777E" d="M275.4,103c0-5.5-0.1-10-0.3-14.1h7l0.4,7.4h0.2c3.1-5.3,8.3-8.3,15.2-8.3c10.5,0,18.3,8.8,18.3,21.8
		c0,15.5-9.5,23.1-19.6,23.1c-5.8,0-10.7-2.5-13.2-6.8h-0.2v23.4h-7.8V103z M283.2,114.4c0,1.1,0.1,2.2,0.4,3.2
		c1.3,5.4,6.1,9.1,11.7,9.1c8.3,0,13.1-6.8,13.1-16.6c0-8.6-4.4-16-12.7-16c-5.3,0-10.4,3.7-11.9,9.6c-0.2,1.1-0.5,2.2-0.5,3.2
		V114.4z"/>
	<path fill="#74777E" d="M343.5,133c-11.6,0-20.6-8.6-20.6-22.2c0-14.4,9.5-22.8,21.3-22.8c12.4,0,20.7,9,20.7,22
		c0,16-11.1,23-21.3,23H343.5z M343.8,127.1c7.5,0,13.1-7,13.1-16.8c0-7.3-3.6-16.5-12.9-16.5c-9.2,0-13.2,8.5-13.2,16.7
		C330.8,120,336.2,127.1,343.8,127.1L343.8,127.1z"/>
	<path fill="#74777E" d="M384.3,78.6v10.3h11.2v5.9h-11.2v23.2c0,5.3,1.5,8.4,5.9,8.4c2.2,0,3.4-0.2,4.5-0.5l0.3,6
		c-1.5,0.5-3.9,1.1-6.9,1.1c-3.6,0-6.6-1.3-8.4-3.3c-2.1-2.4-3-6.2-3-11.3V94.9h-6.7v-5.9h6.7V81L384.3,78.6z"/>
	<path fill="#74777E" d="M408.2,111.8c0.2,10.6,6.8,14.9,14.7,14.9c5.6,0,9.1-1,11.9-2.1l1.4,5.5c-2.8,1.2-7.5,2.8-14.4,2.8
		c-13.2,0-21.2-8.8-21.2-21.7c0-13.1,7.8-23.3,20.3-23.3c14,0,17.7,12.4,17.7,20.3c0,1.6-0.1,2.8-0.3,3.7L408.2,111.8z M431,106.2
		c0.1-4.9-2-12.7-10.7-12.7c-8,0-11.4,7.3-12,12.7H431z"/>
	<path fill="#74777E" d="M479,130.4c-2.1,1-6.6,2.5-12.4,2.5c-13,0-21.4-8.8-21.4-22.1c0-13.3,9.1-22.9,23.1-22.9
		c4.6,0,8.7,1.1,10.8,2.3l-1.8,5.9c-1.9-1-4.8-2-9.1-2c-9.9,0-15.2,7.4-15.2,16.4c0,10,6.4,16.1,15,16.1c4.4,0,7.4-1.1,9.6-2.1
		L479,130.4z"/>
	<path fill="#74777E" d="M518.5,121.6c0,3.7,0.2,7.4,0.6,10.3h-7l-0.7-5.4h-0.3c-2.3,3.4-7,6.4-13.2,6.4c-8.7,0-13.1-6.2-13.1-12.4
		c0-10.4,9.3-16.1,25.9-16v-0.9c0-3.5-1-10-9.8-9.9c-4.1,0-8.3,1.1-11.3,3.2l-1.8-5.2c3.5-2.2,8.8-3.7,14.2-3.7
		c13.2,0,16.4,9,16.4,17.6V121.6z M510.8,110c-8.5-0.2-18.2,1.3-18.2,9.7c0,5.2,3.4,7.5,7.3,7.5c5.7,0,9.3-3.5,10.6-7.2
		c0.3-0.8,0.4-1.7,0.4-2.5V110z"/>
	<path fill="#74777E" d="M531.1,102.3c0-5.1-0.1-9.4-0.3-13.4h6.8l0.4,8.4h0.3c2-5.8,6.8-9.4,12-9.4c0.8,0,1.4,0.1,2.1,0.3v7.3
		c-0.9-0.1-1.7-0.2-2.8-0.2c-5.5,0-9.4,4.2-10.5,10c-0.2,1.2-0.3,2.4-0.3,3.7v22.9H531L531.1,102.3z"/>
	<path fill="#74777E" d="M564.2,81c-2.9,0-4.9-2.3-4.9-5.1c0-2.8,2-5,5.1-5c3,0,5,2.2,5,5C569.3,78.7,567.4,81,564.2,81L564.2,81z
		 M560.4,88.9h7.8v43h-7.8V88.9z"/>
	<path fill="#74777E" d="M611.5,121.6c0,3.7,0.2,7.4,0.6,10.3h-7l-0.7-5.4h-0.3c-2.3,3.4-7,6.4-13.2,6.4c-8.7,0-13.2-6.2-13.2-12.4
		c0-10.4,9.2-16.1,25.9-16v-0.9c0-3.5-1-10-9.8-9.9c-4.1,0-8.3,1.1-11.3,3.2l-1.8-5.2c3.6-2.2,8.8-3.7,14.2-3.7
		c13.3,0,16.4,9,16.4,17.6V121.6z M603.9,110c-8.6-0.2-18.2,1.3-18.2,9.7c0,5.2,3.4,7.5,7.3,7.5c5.7,0,9.3-3.5,10.6-7.2
		c0.3-0.8,0.4-1.7,0.4-2.5V110z"/>
	<path fill="#74777E" d="M187.9,93c-4-4.1-9.6-6.1-16.6-6.1c-6.3,0-11.6,2.2-16,6.5c-4.4,4.4-6.6,9.7-6.6,16
		c0,6.4,2.2,11.8,6.5,16.1c4.3,4.3,9.8,6.4,16.3,6.4c1,0,2.2-0.1,3.4-0.3v-16.7c-1.1,0.7-2.4,1-3.7,1c-1.7,0-3.2-0.6-4.3-1.7
		c-1.1-1.1-1.7-2.6-1.7-4.4c0-1.7,0.6-3.2,1.9-4.4c1.2-1.2,2.7-1.9,4.5-1.9c1.9,0,3.4,0.7,4.5,2c1.1,1.3,1.7,3.1,1.7,5.4v20.9H194
		v-22.1C194,102.7,191.9,97.1,187.9,93"/>
	<polygon fill="#6E1724" points="385,157.8 379,157.8 379,155.7 393.6,155.7 393.6,157.8 387.6,157.8 387.6,175.4 385,175.4 	"/>
	<path fill="#6E1724" d="M406.2,171.5c0,1.5,0,2.7,0.1,3.9H404l-0.1-2.3h-0.1c-0.6,1.1-2.2,2.6-4.7,2.6c-2.2,0-4.9-1.3-4.9-6.2v-8.3
		h2.6v7.8c0,2.7,0.9,4.5,3.2,4.5c1.7,0,2.9-1.2,3.4-2.4c0.2-0.3,0.2-0.8,0.2-1.3v-8.7h2.6V171.5z"/>
	<path fill="#6E1724" d="M416.7,155.9c1.1-0.3,2.9-0.4,4.6-0.4c2.5,0,4.2,0.4,5.4,1.4c1,0.8,1.6,1.9,1.6,3.5c0,1.9-1.3,3.6-3.3,4.3
		v0.1c1.9,0.4,4.1,2,4.1,4.9c0,1.7-0.7,3-1.7,3.9c-1.3,1.3-3.6,1.8-6.8,1.8c-1.8,0-3.1-0.1-3.9-0.2V155.9z M419.3,164h2.3
		c2.7,0,4.2-1.4,4.2-3.3c0-2.3-1.7-3.2-4.3-3.2c-1.2,0-1.8,0.1-2.3,0.2V164z M419.3,173.4c0.5,0.1,1.2,0.1,2.1,0.1
		c2.6,0,5.1-1,5.1-3.8c0-2.7-2.3-3.8-5.1-3.8h-2.1V173.4z"/>
	<path fill="#6E1724" d="M442.5,172c0,1.2,0.1,2.4,0.2,3.4h-2.3l-0.2-1.8h-0.1c-0.8,1.1-2.3,2.1-4.3,2.1c-2.9,0-4.3-2-4.3-4.1
		c0-3.4,3-5.3,8.5-5.3v-0.3c0-1.2-0.3-3.3-3.2-3.3c-1.3,0-2.7,0.4-3.7,1l-0.6-1.7c1.2-0.7,2.9-1.3,4.7-1.3c4.3,0,5.4,3,5.4,5.8V172z
		 M440,168.1c-2.8,0-6,0.4-6,3.2c0,1.7,1.1,2.5,2.4,2.5c1.9,0,3.1-1.2,3.5-2.4c0.1-0.3,0.1-0.6,0.1-0.8V168.1z"/>
	<path fill="#6E1724" d="M446.6,165c0-1.5,0-2.7-0.1-3.8h2.3l0.2,2.3h0c0.7-1.3,2.3-2.6,4.7-2.6c2,0,5,1.2,5,6v8.5h-2.6v-8.2
		c0-2.3-0.8-4.2-3.3-4.2c-1.7,0-3,1.2-3.5,2.6c-0.1,0.3-0.2,0.8-0.2,1.2v8.5h-2.6V165z"/>
	<path fill="#6E1724" d="M472.9,174.9c-0.7,0.3-2.2,0.8-4.1,0.8c-4.3,0-7.1-2.9-7.1-7.3c0-4.3,3-7.5,7.6-7.5c1.5,0,2.9,0.4,3.6,0.8
		l-0.6,2c-0.6-0.3-1.6-0.7-3-0.7c-3.2,0-5,2.4-5,5.4c0,3.3,2.1,5.3,4.9,5.3c1.5,0,2.4-0.4,3.2-0.7L472.9,174.9z"/>
	<path fill="#6E1724" d="M481.5,175.7c-3.8,0-6.8-2.8-6.8-7.3c0-4.7,3.1-7.5,7-7.5c4.1,0,6.8,3,6.8,7.3
		C488.5,173.4,484.9,175.7,481.5,175.7L481.5,175.7z M481.6,173.7c2.5,0,4.3-2.3,4.3-5.5c0-2.4-1.2-5.4-4.2-5.4
		c-3,0-4.3,2.8-4.3,5.5C477.3,171.4,479.1,173.7,481.6,173.7L481.6,173.7z"/>
	<path fill="#6E1724" d="M492.2,175.7c-1,0-1.7-0.8-1.7-1.8c0-1.1,0.7-1.8,1.8-1.8c1,0,1.7,0.7,1.7,1.8
		C493.9,174.9,493.2,175.7,492.2,175.7L492.2,175.7z"/>
	<polygon fill="#6E1724" points="503.8,157.8 497.8,157.8 497.8,155.7 512.4,155.7 512.4,157.8 506.3,157.8 506.3,175.4 
		503.8,175.4 	"/>
	<path fill="#6E1724" d="M525,171.5c0,1.5,0,2.7,0.1,3.9h-2.3l-0.2-2.3h-0.1c-0.6,1.1-2.1,2.6-4.7,2.6c-2.2,0-4.9-1.3-4.9-6.2v-8.3
		h2.6v7.8c0,2.7,0.9,4.5,3.2,4.5c1.7,0,2.9-1.2,3.4-2.4c0.1-0.3,0.2-0.8,0.2-1.3v-8.7h2.6V171.5z"/>
	<polygon fill="#6E1724" points="538.1,155.7 538.1,163.9 547.6,163.9 547.6,155.7 550.2,155.7 550.2,175.4 547.6,175.4 
		547.6,166.1 538.1,166.1 538.1,175.4 535.5,175.4 535.5,155.7 	"/>
	<path fill="#6E1724" d="M560.3,175.7c-3.8,0-6.8-2.8-6.8-7.3c0-4.7,3.1-7.5,7-7.5c4.1,0,6.8,3,6.8,7.3
		C567.3,173.4,563.7,175.7,560.3,175.7L560.3,175.7z M560.4,173.7c2.5,0,4.3-2.3,4.3-5.5c0-2.4-1.2-5.4-4.2-5.4
		c-3,0-4.3,2.8-4.3,5.5C556.1,171.4,557.9,173.7,560.4,173.7L560.4,173.7z"/>
	<path fill="#6E1724" d="M582.7,173.3c0,3.3-0.7,5.2-2,6.5c-1.4,1.2-3.4,1.7-5.2,1.7c-1.7,0-3.6-0.4-4.7-1.2l0.6-2
		c0.9,0.6,2.4,1.1,4.2,1.1c2.6,0,4.5-1.4,4.5-5v-1.5h-0.1c-0.8,1.3-2.3,2.4-4.5,2.4c-3.5,0-6-3-6-6.9c0-4.8,3.1-7.5,6.4-7.5
		c2.5,0,3.8,1.3,4.4,2.4h0.1l0.1-2.1h2.3c-0.1,1-0.1,2.1-0.1,3.9V173.3z M580.1,166.8c0-0.4,0-0.8-0.2-1.1c-0.4-1.5-1.7-2.8-3.6-2.8
		c-2.4,0-4.2,2.1-4.2,5.4c0,2.7,1.4,5.1,4.2,5.1c1.6,0,3-1,3.6-2.7c0.1-0.4,0.2-0.9,0.2-1.4V166.8z"/>
	<path fill="#6E1724" d="M596.9,172c0,1.2,0.1,2.4,0.2,3.4h-2.3l-0.2-1.8h-0.1c-0.7,1.1-2.3,2.1-4.3,2.1c-2.9,0-4.3-2-4.3-4.1
		c0-3.4,3-5.3,8.5-5.3v-0.3c0-1.2-0.3-3.3-3.2-3.3c-1.3,0-2.7,0.4-3.7,1l-0.6-1.7c1.2-0.7,2.9-1.3,4.7-1.3c4.4,0,5.4,3,5.4,5.8V172z
		 M594.4,168.1c-2.8,0-6,0.4-6,3.2c0,1.7,1.1,2.5,2.4,2.5c1.9,0,3.1-1.2,3.5-2.4c0.1-0.3,0.1-0.6,0.1-0.8V168.1z"/>
	<path fill="#6E1724" d="M601,165.6c0-1.7,0-3.1-0.1-4.4h2.3l0.1,2.8h0.1c0.6-1.9,2.2-3.1,3.9-3.1c0.3,0,0.5,0.1,0.7,0.1v2.4
		c-0.3,0-0.5-0.1-0.9-0.1c-1.8,0-3.1,1.4-3.5,3.3c-0.1,0.4-0.1,0.8-0.1,1.2v7.5H601L601,165.6z"/>
	<path fill="#6E1724" d="M610.1,175.7c-1,0-1.7-0.8-1.7-1.8c0-1.1,0.7-1.8,1.7-1.8c1,0,1.7,0.7,1.7,1.8
		C611.9,174.9,611.2,175.7,610.1,175.7L610.1,175.7z"/>
	<g>
		<path fill="#74777E" d="M146.8,116.6c-0.7,0.3-1.5,0.4-2.3,0.4c-4.3,0-6.4-2.9-6.4-8.9V71.6h-16.8v37.2c0,6.8,1.8,12.4,5.4,16.7
			c2.1,2.5,4.7,4.4,7.9,5.9c3.2,1.4,6.5,2.2,9.8,2.2c4.7,0,8.9-1.2,12.6-3.5C149.1,125.8,147.1,118.3,146.8,116.6z"/>
	</g>
</g>
</svg>
