<?xml version="1.0" encoding="utf-8"?>
<!-- Generator: Adobe Illustrator 17.1.0, SVG Export Plug-In . SVG Version: 6.00 Build 0)  -->
<!DOCTYPE svg PUBLIC "-//W3C//DTD SVG 1.1//EN" "http://www.w3.org/Graphics/SVG/1.1/DTD/svg11.dtd">
<svg version="1.1" id="Capa_1" xmlns="http://www.w3.org/2000/svg" xmlns:xlink="http://www.w3.org/1999/xlink" x="0px" y="0px"
	 viewBox="0 0 27.8 162.1" enable-background="new 0 0 27.8 162.1" xml:space="preserve">
<g>
	<g>
		<path fill-rule="evenodd" clip-rule="evenodd" fill="#252324" d="M10.5,100l-0.1-0.8c0.4,0,0.7-0.1,0.9-0.3
			c0.2-0.2,0.3-0.4,0.3-0.6c0-0.3-0.1-0.5-0.3-0.6c-0.2-0.1-0.4-0.2-0.6-0.2c-0.1,0-0.3,0-0.4,0.1c-0.1,0.1-0.2,0.1-0.3,0.3
			c0,0.1-0.1,0.3-0.3,0.6c-0.2,0.4-0.4,0.7-0.6,0.9c-0.3,0.2-0.8,0.4-1.3,0.4c-0.3,0-0.6-0.1-0.9-0.2c-0.3-0.1-0.5-0.3-0.6-0.5
			c-0.1-0.2-0.2-0.5-0.2-0.8c0-0.5,0.2-0.9,0.5-1.1C7,97,7.5,96.8,8.1,96.8l0.1,0.8c-0.3,0-0.6,0.1-0.7,0.2
			c-0.1,0.1-0.2,0.3-0.2,0.5c0,0.2,0.1,0.4,0.2,0.6c0.1,0.1,0.2,0.1,0.4,0.1c0.2,0,0.3,0,0.4-0.1c0.1-0.1,0.3-0.4,0.4-0.8
			c0.1-0.4,0.3-0.7,0.5-0.9c0.2-0.2,0.4-0.3,0.6-0.4c0.3-0.1,0.6-0.2,1-0.2c0.4,0,0.7,0.1,1,0.2c0.3,0.1,0.5,0.3,0.7,0.6
			c0.2,0.2,0.2,0.5,0.2,0.9c0,0.5-0.2,0.9-0.6,1.2C11.7,99.8,11.2,100,10.5,100z"/>
		<path fill-rule="evenodd" clip-rule="evenodd" fill="#252324" d="M6.3,96l0-0.8l3.4,0c0.5,0,0.9,0,1,0c0.3,0,0.5-0.1,0.6-0.2
			c0.2-0.1,0.2-0.3,0.2-0.5c0-0.2-0.1-0.4-0.2-0.5c-0.1-0.1-0.3-0.2-0.5-0.2c-0.2,0-0.6,0-1,0l-3.5,0l0-0.8l3.3,0
			c0.8,0,1.3,0,1.6,0.1c0.3,0,0.6,0.1,0.8,0.2c0.2,0.1,0.4,0.3,0.5,0.5c0.1,0.2,0.2,0.4,0.2,0.8c0,0.4-0.1,0.7-0.2,0.9
			c-0.1,0.2-0.3,0.4-0.5,0.5c-0.2,0.1-0.5,0.2-0.7,0.2c-0.4,0-0.9,0.1-1.6,0.1L6.3,96z"/>
		<path fill-rule="evenodd" clip-rule="evenodd" fill="#252324" d="M12.6,92l-6.2-0.1l0-1.3c0-0.5,0-0.8,0.1-1
			c0.1-0.2,0.3-0.4,0.6-0.6c0.3-0.2,0.7-0.2,1.2-0.2c0.4,0,0.7,0.1,1,0.1c0.3,0.1,0.5,0.2,0.6,0.4c0.1,0.1,0.2,0.3,0.3,0.4
			c0.1,0.2,0.1,0.5,0.1,0.8l0,0.5l2.4,0L12.6,92z M7.4,91.1l1.8,0l0-0.4c0-0.3,0-0.5-0.1-0.6C9,90,8.9,89.9,8.8,89.8
			c-0.1-0.1-0.3-0.1-0.5-0.1c-0.2,0-0.4,0-0.6,0.1c-0.2,0.1-0.2,0.2-0.3,0.3c0,0.1-0.1,0.3-0.1,0.6L7.4,91.1z"/>
		<path fill-rule="evenodd" clip-rule="evenodd" fill="#252324" d="M12.6,88.3l-6.2-0.1l0-3l1.1,0l0,2.2l1.4,0l0-2l1,0l0,2l1.7,0
			l0-2.2l1.1,0L12.6,88.3z"/>
		<path fill-rule="evenodd" clip-rule="evenodd" fill="#252324" d="M12.6,84.5l-6.2-0.1l0-1.7c0-0.4,0.1-0.7,0.2-0.9
			c0.1-0.2,0.3-0.3,0.6-0.5c0.3-0.1,0.6-0.2,1-0.2c0.5,0,0.9,0.1,1.2,0.3c0.3,0.2,0.5,0.4,0.6,0.8c0.2-0.2,0.3-0.3,0.5-0.4
			c0.2-0.1,0.5-0.3,1-0.5l1.2-0.5l0,1l-1.4,0.6c-0.5,0.2-0.8,0.3-0.9,0.4c-0.1,0.1-0.2,0.1-0.3,0.2c0,0.1-0.1,0.2-0.1,0.4l0,0.2
			l2.6,0L12.6,84.5z M9,83.7l0-0.6c0-0.4,0-0.6-0.1-0.7c0-0.1-0.1-0.2-0.2-0.2C8.6,82,8.4,82,8.3,82c-0.2,0-0.4,0-0.5,0.1
			c-0.1,0.1-0.2,0.2-0.3,0.3c0,0.1,0,0.3,0,0.6l0,0.6L9,83.7z"/>
		<path fill-rule="evenodd" clip-rule="evenodd" fill="#252324" d="M12.7,80.5l-6.2-0.1l0-0.8l6.2,0.1L12.7,80.5z"/>
		<path fill-rule="evenodd" clip-rule="evenodd" fill="#252324" d="M12.7,78.9l-6.2-0.1l0-0.8l4.2-1.6l-4.2,0l0-0.7l6.2,0.1l0,0.8
			l-4.1,1.6l4.1,0L12.7,78.9z"/>
		<path fill-rule="evenodd" clip-rule="evenodd" fill="#252324" d="M12.7,73.9l-5.2-0.1l0,1.2l-1.1,0l0-3.2l1.1,0l0,1.2l5.2,0
			L12.7,73.9z"/>
		<path fill-rule="evenodd" clip-rule="evenodd" fill="#252324" d="M12.7,71.4l-6.2-0.1l0-3l1.1,0l0,2.1l1.4,0l0-2l1,0l0,2l1.7,0
			l0-2.2l1.1,0L12.7,71.4z"/>
		<path fill-rule="evenodd" clip-rule="evenodd" fill="#252324" d="M12.8,67.6l-6.2-0.1l0-0.8l4.2-1.6l-4.2,0l0-0.8l6.2,0.1l0,0.8
			l-4.1,1.6l4.1,0L12.8,67.6z"/>
		<path fill-rule="evenodd" clip-rule="evenodd" fill="#252324" d="M6.6,63.5l0-1.5c0-0.3,0-0.6,0.1-0.8C6.8,61,7,60.8,7.3,60.7
			c0.3-0.2,0.6-0.3,1-0.4c0.4-0.1,0.9-0.2,1.5-0.1c0.5,0,0.9,0.1,1.3,0.2c0.4,0.1,0.8,0.2,1.1,0.4c0.2,0.1,0.4,0.3,0.5,0.6
			c0.1,0.2,0.1,0.4,0.1,0.7l0,1.5L6.6,63.5z M7.6,62.7l4.1,0l0-0.6c0-0.2,0-0.4,0-0.5c-0.1-0.1-0.1-0.2-0.3-0.3
			c-0.1-0.1-0.3-0.2-0.6-0.2c-0.3-0.1-0.7-0.1-1.1-0.1c-0.5,0-0.9,0-1.1,0.1c-0.3,0-0.5,0.1-0.6,0.2c-0.1,0.1-0.2,0.2-0.3,0.4
			c0,0.1-0.1,0.3-0.1,0.7L7.6,62.7z"/>
		<path fill-rule="evenodd" clip-rule="evenodd" fill="#252324" d="M12.9,59.5l-6.2-0.1l0-3l1.1,0l0,2.2l1.4,0l0-2l1,0l0,2l1.7,0
			l0-2.2l1.1,0L12.9,59.5z"/>
		<path fill-rule="evenodd" clip-rule="evenodd" fill="#252324" d="M12.9,55.8l-6.2-0.1l0-0.8l4.2-1.6l-4.2,0l0-0.8l6.2,0.1l0,0.8
			L8.8,55l4.1,0L12.9,55.8z"/>
		<path fill-rule="evenodd" clip-rule="evenodd" fill="#252324" d="M10.7,49.1l0.4-0.8c0.7,0.1,1.2,0.3,1.5,0.6
			c0.3,0.3,0.5,0.6,0.5,1.1c0,0.5-0.3,1-0.9,1.3c-0.6,0.3-1.3,0.5-2.3,0.5c-1,0-1.8-0.2-2.4-0.5c-0.6-0.4-0.9-0.8-0.8-1.4
			c0-0.5,0.2-0.9,0.7-1.2c0.3-0.2,0.6-0.3,1.1-0.4l0.3,0.8c-0.3,0-0.6,0.1-0.8,0.3c-0.2,0.1-0.3,0.3-0.3,0.5c0,0.3,0.2,0.5,0.5,0.7
			C8.5,50.9,9,51,9.8,51c0.8,0,1.3-0.1,1.7-0.3c0.3-0.2,0.5-0.4,0.5-0.7c0-0.2-0.1-0.4-0.3-0.6C11.4,49.3,11.1,49.2,10.7,49.1z"/>
		<path fill-rule="evenodd" clip-rule="evenodd" fill="#252324" d="M13,47.7l-6.2-0.1l0-0.8l6.2,0.1L13,47.7z"/>
		<path fill-rule="evenodd" clip-rule="evenodd" fill="#252324" d="M13,42.5l0,0.9l-1.4,0.3l0,1.6l1.4,0.4l0,0.8l-6.2-1.6l0-0.8
			L13,42.5z M10.5,44l-2.3,0.5l2.3,0.6L10.5,44z"/>
		<path fill-rule="evenodd" clip-rule="evenodd" fill="#252324" d="M13,40.7l-6.2-0.1l0-2.8l1.1,0l0,1.9l1.5,0l0-1.7l1.1,0l0,1.7
			l2.6,0L13,40.7z"/>
		<path fill-rule="evenodd" clip-rule="evenodd" fill="#252324" d="M13.1,37.3l-6.2-0.1l0-0.8l6.2,0.1L13.1,37.3z"/>
		<path fill-rule="evenodd" clip-rule="evenodd" fill="#252324" d="M13.1,35.7l-6.2-0.1l0-0.8l4.2-1.6l-4.2,0l0-0.8l6.2,0.1l0,0.8
			L9,34.9l4.1,0L13.1,35.7z"/>
		<path fill-rule="evenodd" clip-rule="evenodd" fill="#252324" d="M13.1,28l0,0.9l-1.4,0.4l0,1.6l1.4,0.3l0,0.9l-6.2-1.6l0-0.9
			L13.1,28z M10.6,29.5L8.3,30l2.3,0.6L10.6,29.5z"/>
		<path fill-rule="evenodd" clip-rule="evenodd" fill="#252324" d="M13.1,27.6l-6.2-0.1l0-0.8l4.2-1.6l-4.2,0l0-0.8l6.2,0.1l0,0.8
			l-4.1,1.6l4.1,0L13.1,27.6z"/>
		<path fill-rule="evenodd" clip-rule="evenodd" fill="#252324" d="M10.9,20.9l0.4-0.8c0.7,0.1,1.2,0.3,1.5,0.6
			c0.3,0.3,0.5,0.6,0.5,1.1c0,0.5-0.3,1-0.9,1.3c-0.6,0.3-1.3,0.5-2.3,0.5c-1,0-1.8-0.2-2.4-0.5c-0.6-0.4-0.9-0.8-0.8-1.4
			c0-0.5,0.2-0.9,0.7-1.2c0.3-0.2,0.6-0.3,1.1-0.4L9,20.9c-0.3,0-0.6,0.1-0.8,0.3c-0.2,0.1-0.3,0.3-0.3,0.5c0,0.3,0.2,0.6,0.5,0.7
			c0.3,0.2,0.9,0.3,1.6,0.3c0.8,0,1.3-0.1,1.7-0.3c0.3-0.2,0.5-0.4,0.5-0.7c0-0.2-0.1-0.4-0.3-0.5C11.7,21.1,11.4,21,10.9,20.9z"/>
		<path fill-rule="evenodd" clip-rule="evenodd" fill="#252324" d="M13.2,19.5L7,19.4l0-0.8l6.2,0.1L13.2,19.5z"/>
		<path fill-rule="evenodd" clip-rule="evenodd" fill="#252324" d="M13.2,17.9L7,17.8l0-3l1.1,0L8,17l1.4,0l0-2l1,0l0,2l1.7,0l0-2.3
			l1.1,0L13.2,17.9z"/>
		<path fill-rule="evenodd" clip-rule="evenodd" fill="#252324" d="M13.3,14.1L7,14.1l0-1.7c0-0.4,0.1-0.8,0.2-1
			c0.1-0.2,0.3-0.4,0.6-0.5c0.3-0.1,0.6-0.2,1-0.2c0.5,0,0.9,0.1,1.2,0.3c0.3,0.2,0.5,0.4,0.6,0.8c0.2-0.2,0.3-0.3,0.5-0.4
			c0.2-0.1,0.5-0.3,1-0.4l1.2-0.5l0,1l-1.4,0.6c-0.5,0.2-0.8,0.4-0.9,0.4c-0.1,0.1-0.2,0.2-0.3,0.2c0,0.1-0.1,0.2-0.1,0.4l0,0.2
			l2.6,0L13.3,14.1z M9.7,13.3l0-0.6c0-0.4,0-0.6-0.1-0.7c0-0.1-0.1-0.2-0.2-0.2c-0.1,0-0.3-0.1-0.5-0.1c-0.2,0-0.4,0-0.5,0.1
			c-0.1,0.1-0.2,0.2-0.3,0.3c0,0.1,0,0.3,0,0.6l0,0.6L9.7,13.3z"/>
		<path fill-rule="evenodd" clip-rule="evenodd" fill="#252324" d="M13.3,6.5l0,0.9l-1.4,0.3l0,1.6l1.4,0.3l0,0.9L7.1,8.9l0-0.9
			L13.3,6.5z M10.8,7.9L8.5,8.5L10.8,9L10.8,7.9z"/>
		<path fill-rule="evenodd" clip-rule="evenodd" fill="#252324" d="M16.5,72.9l0-1.5c0-0.3,0.1-0.6,0.1-0.8c0.1-0.2,0.3-0.4,0.6-0.6
			c0.3-0.2,0.6-0.3,1-0.4c0.4-0.1,0.9-0.1,1.5-0.1c0.5,0,0.9,0.1,1.3,0.1c0.4,0.1,0.8,0.3,1.1,0.5c0.2,0.1,0.4,0.3,0.5,0.6
			c0.1,0.2,0.1,0.4,0.1,0.7l0,1.5L16.5,72.9z M17.6,72.1l4.1,0l0-0.6c0-0.2,0-0.4-0.1-0.5c0-0.1-0.1-0.2-0.3-0.3
			c-0.1-0.1-0.3-0.2-0.6-0.2c-0.3-0.1-0.6-0.1-1.1-0.1c-0.5,0-0.9,0-1.1,0.1c-0.3,0-0.5,0.1-0.6,0.2c-0.1,0.1-0.2,0.2-0.3,0.4
			c0,0.1-0.1,0.3-0.1,0.7L17.6,72.1z"/>
		<path fill-rule="evenodd" clip-rule="evenodd" fill="#252324" d="M22.8,68.9l-6.2-0.1l0-3l1.1,0l0,2.2l1.4,0l0-2l1,0l0,2l1.7,0
			l0-2.3l1,0L22.8,68.9z"/>
		<path fill-rule="evenodd" clip-rule="evenodd" fill="#252324" d="M20.6,61l0.4-0.8c0.7,0.1,1.2,0.3,1.5,0.6
			c0.3,0.3,0.5,0.6,0.5,1.1c0,0.5-0.3,1-0.9,1.3c-0.6,0.3-1.3,0.5-2.3,0.5c-1,0-1.8-0.2-2.4-0.5c-0.6-0.3-0.8-0.8-0.8-1.4
			c0-0.5,0.2-0.9,0.7-1.2c0.3-0.2,0.6-0.3,1.1-0.4l0.3,0.8c-0.3,0-0.6,0.1-0.8,0.3c-0.2,0.1-0.3,0.3-0.3,0.5c0,0.3,0.2,0.5,0.5,0.7
			c0.3,0.2,0.9,0.3,1.6,0.3c0.8,0,1.3-0.1,1.7-0.2c0.3-0.2,0.5-0.4,0.5-0.7c0-0.2-0.1-0.4-0.3-0.6C21.4,61.2,21,61.1,20.6,61z"/>
		<path fill-rule="evenodd" clip-rule="evenodd" fill="#252324" d="M19.8,59.7c-0.6,0-1.2-0.1-1.6-0.2c-0.3-0.1-0.6-0.2-0.9-0.4
			c-0.3-0.2-0.4-0.3-0.6-0.5c-0.2-0.2-0.2-0.5-0.2-0.9c0-0.6,0.3-1.1,0.9-1.4c0.6-0.4,1.4-0.5,2.4-0.5c1,0,1.8,0.2,2.3,0.5
			c0.6,0.4,0.8,0.8,0.8,1.4c0,0.6-0.3,1.1-0.9,1.4C21.6,59.5,20.8,59.7,19.8,59.7z M19.7,58.9c0.7,0,1.2-0.1,1.6-0.3
			c0.4-0.2,0.5-0.5,0.5-0.8c0-0.3-0.1-0.6-0.5-0.8c-0.3-0.2-0.9-0.3-1.6-0.3c-0.7,0-1.2,0.1-1.6,0.3c-0.4,0.2-0.5,0.5-0.5,0.8
			c0,0.3,0.2,0.6,0.5,0.8C18.5,58.8,19,58.9,19.7,58.9z"/>
		<path fill-rule="evenodd" clip-rule="evenodd" fill="#252324" d="M22.9,55.2l-6.2-0.1l0-0.8l5.1,0l0-2l1,0L22.9,55.2z"/>
		<path fill-rule="evenodd" clip-rule="evenodd" fill="#252324" d="M19.9,51.9c-0.6,0-1.2-0.1-1.6-0.2c-0.3-0.1-0.6-0.2-0.9-0.4
			c-0.3-0.2-0.4-0.3-0.6-0.5c-0.2-0.2-0.2-0.5-0.2-0.9c0-0.6,0.3-1.1,0.9-1.4c0.6-0.3,1.4-0.5,2.4-0.5c1,0,1.8,0.2,2.3,0.5
			c0.6,0.4,0.8,0.8,0.8,1.4c0,0.6-0.3,1.1-0.9,1.4C21.6,51.7,20.8,51.9,19.9,51.9z M19.8,51.1c0.7,0,1.2-0.1,1.6-0.3
			c0.4-0.2,0.5-0.5,0.5-0.8c0-0.3-0.1-0.6-0.5-0.8c-0.3-0.2-0.9-0.3-1.6-0.3c-0.7,0-1.2,0.1-1.6,0.3c-0.4,0.2-0.5,0.5-0.5,0.8
			c0,0.3,0.2,0.6,0.5,0.8C18.6,50.9,19.1,51.1,19.8,51.1z"/>
		<path fill-rule="evenodd" clip-rule="evenodd" fill="#252324" d="M23,47.4l-6.2-0.1l0-1.2l4.3-0.7l-4.2-0.8l0-1.2l6.2,0.1l0,0.7
			l-4.9,0l4.9,0.8l0,0.8l-4.9,0.7l4.9,0L23,47.4z"/>
		<path fill-rule="evenodd" clip-rule="evenodd" fill="#252324" d="M16.8,42.7l0-1.6c0-0.3,0-0.5,0.1-0.7c0-0.2,0.1-0.3,0.3-0.4
			c0.1-0.1,0.3-0.2,0.5-0.3c0.2-0.1,0.5-0.1,0.7-0.1c0.3,0,0.6,0.1,0.8,0.2c0.2,0.1,0.4,0.3,0.5,0.4c0.1-0.2,0.3-0.4,0.6-0.6
			c0.3-0.1,0.6-0.2,0.9-0.2c0.3,0,0.6,0,0.8,0.1c0.3,0.1,0.5,0.2,0.6,0.3c0.2,0.1,0.3,0.3,0.3,0.5c0,0.1,0,0.5,0,1l0,1.4L16.8,42.7z
			 M17.8,41.9l1.4,0l0-0.5c0-0.3,0-0.5,0-0.6c0-0.1-0.1-0.3-0.2-0.3c-0.1-0.1-0.3-0.1-0.5-0.1c-0.2,0-0.3,0-0.5,0.1
			c-0.1,0.1-0.2,0.2-0.2,0.3c0,0.1,0,0.3,0,0.7L17.8,41.9z M20.3,41.9l1.7,0l0-0.8c0-0.3,0-0.5,0-0.5c0-0.1-0.1-0.2-0.2-0.3
			c-0.1-0.1-0.3-0.1-0.5-0.1c-0.2,0-0.4,0-0.5,0.1c-0.1,0.1-0.2,0.1-0.3,0.3c0,0.1-0.1,0.4-0.1,0.7L20.3,41.9z"/>
		<path fill-rule="evenodd" clip-rule="evenodd" fill="#252324" d="M23,38.7l-6.2-0.1l0-0.8l6.2,0.1L23,38.7z"/>
		<path fill-rule="evenodd" clip-rule="evenodd" fill="#252324" d="M23.1,33.5l0,0.9l-1.4,0.3l0,1.6l1.4,0.3l0,0.9l-6.2-1.6l0-0.9
			L23.1,33.5z M20.6,34.9l-2.3,0.5l2.3,0.6L20.6,34.9z"/>
		<path fill-rule="evenodd" clip-rule="evenodd" fill="#252324" d="M18,152.2l-7.2,1.6l0-1l5.3-1.1l-5.3-1.2l0-1l7.2,1.7L18,152.2z"
			/>
		<path fill-rule="evenodd" clip-rule="evenodd" fill="#252324" d="M18,146.7l-7.2-0.1l0-0.9l7.2,0.1L18,146.7z"/>
		<path fill-rule="evenodd" clip-rule="evenodd" fill="#252324" d="M15.4,140.2l-1.2,0l0-2l2.9,0c0.3,0.2,0.5,0.5,0.8,0.9
			c0.2,0.4,0.3,0.8,0.3,1.1c0,0.5-0.2,0.9-0.5,1.3c-0.3,0.4-0.8,0.6-1.4,0.8c-0.6,0.2-1.2,0.3-1.9,0.3c-0.7,0-1.4-0.1-2-0.3
			c-0.6-0.2-1-0.5-1.3-0.9c-0.2-0.3-0.3-0.7-0.3-1.1c0-0.6,0.2-1,0.6-1.4c0.4-0.3,0.9-0.5,1.5-0.6l0.3,0.9c-0.4,0.1-0.6,0.2-0.8,0.4
			c-0.2,0.2-0.3,0.4-0.3,0.7c0,0.4,0.2,0.7,0.6,1c0.4,0.3,1,0.4,1.8,0.4c0.9,0,1.5-0.1,1.9-0.4c0.4-0.2,0.6-0.6,0.7-0.9
			c0-0.2-0.1-0.4-0.2-0.6c-0.1-0.2-0.2-0.4-0.4-0.5l-0.9,0L15.4,140.2z"/>
		<path fill-rule="evenodd" clip-rule="evenodd" fill="#252324" d="M18.1,135l-7.2-0.1l0-0.9l7.2,0.1L18.1,135z"/>
		<path fill-rule="evenodd" clip-rule="evenodd" fill="#252324" d="M18.2,130.7l-7.1-0.1l0-0.9l5.9,0.1l0-2.3l1.2,0L18.2,130.7z"/>
		<path fill-rule="evenodd" clip-rule="evenodd" fill="#252324" d="M18.3,120.2l0,1l-1.6,0.4l0,1.9l1.6,0.4l0,1l-7.2-1.9l0-1
			L18.3,120.2z M15.4,121.9l-2.7,0.6l2.6,0.7L15.4,121.9z"/>
		<path fill-rule="evenodd" clip-rule="evenodd" fill="#252324" d="M11.1,117.2l0-1.7c0-0.4,0.1-0.7,0.1-0.9
			c0.1-0.3,0.4-0.5,0.7-0.7c0.3-0.2,0.7-0.3,1.2-0.4c0.5-0.1,1-0.1,1.7-0.1c0.6,0,1.1,0.1,1.5,0.1c0.5,0.1,0.9,0.3,1.3,0.5
			c0.2,0.2,0.4,0.4,0.6,0.7c0.1,0.2,0.1,0.5,0.1,0.8l0,1.8L11.1,117.2z M12.3,116.2l4.7,0l0-0.7c0-0.3,0-0.4-0.1-0.6
			c-0.1-0.2-0.1-0.3-0.3-0.4c-0.1-0.1-0.4-0.2-0.7-0.2c-0.3-0.1-0.8-0.1-1.3-0.1c-0.6,0-1,0-1.3,0.1c-0.3,0.1-0.5,0.2-0.7,0.3
			c-0.2,0.1-0.3,0.3-0.3,0.4c0,0.1-0.1,0.4-0.1,0.8L12.3,116.2z"/>
		<path fill-rule="evenodd" clip-rule="evenodd" fill="#252324" d="M14.8,110.3c-0.7,0-1.3-0.1-1.8-0.2c-0.4-0.1-0.7-0.3-1-0.4
			c-0.3-0.2-0.5-0.4-0.6-0.6c-0.2-0.3-0.3-0.6-0.3-1c0-0.7,0.4-1.2,1-1.6c0.7-0.4,1.6-0.6,2.7-0.6c1.1,0,2.1,0.2,2.7,0.6
			c0.6,0.4,1,1,1,1.6c0,0.7-0.3,1.3-1,1.6C16.8,110.1,16,110.3,14.8,110.3z M14.8,109.3c0.8,0,1.4-0.1,1.8-0.3
			c0.4-0.2,0.6-0.6,0.6-0.9c0-0.4-0.2-0.7-0.6-0.9c-0.4-0.3-1-0.4-1.9-0.4c-0.8,0-1.4,0.1-1.8,0.3c-0.4,0.2-0.6,0.5-0.6,0.9
			c0,0.4,0.2,0.7,0.6,0.9C13.3,109.2,14,109.3,14.8,109.3z"/>
		
			<rect x="-22.5" y="129" transform="matrix(8.944706e-03 -1 1 8.944706e-03 -125.5457 132.7813)" fill-rule="evenodd" clip-rule="evenodd" fill="#252324" width="53.4" height="1.4"/>
		
			<rect x="-2.7" y="129.2" transform="matrix(8.944587e-03 -1 1 8.944587e-03 -106.1036 152.7521)" fill-rule="evenodd" clip-rule="evenodd" fill="#252324" width="53.4" height="1.4"/>
	</g>
</g>
</svg>
