<?xml version="1.0" encoding="utf-8"?>
<!-- Generator: Adobe Illustrator 17.1.0, SVG Export Plug-In . SVG Version: 6.00 Build 0)  -->
<!DOCTYPE svg PUBLIC "-//W3C//DTD SVG 1.1//EN" "http://www.w3.org/Graphics/SVG/1.1/DTD/svg11.dtd">
<svg version="1.1" id="Capa_1" xmlns="http://www.w3.org/2000/svg" xmlns:xlink="http://www.w3.org/1999/xlink" x="0px" y="0px"
	 viewBox="0 0 35.6 171.2" enable-background="new 0 0 35.6 171.2" xml:space="preserve">
<g>
	<g>
		<path fill-rule="evenodd" clip-rule="evenodd" fill="#252324" d="M14.4,106.5l-0.1-0.8c0.4,0,0.7-0.1,0.9-0.3
			c0.2-0.2,0.3-0.4,0.3-0.6c0-0.3-0.1-0.5-0.3-0.6c-0.2-0.1-0.4-0.2-0.6-0.2c-0.1,0-0.3,0-0.4,0.1c-0.1,0.1-0.2,0.1-0.3,0.3
			c0,0.1-0.1,0.3-0.3,0.6c-0.2,0.4-0.4,0.7-0.6,0.9c-0.3,0.2-0.8,0.4-1.3,0.4c-0.3,0-0.6-0.1-0.9-0.2c-0.3-0.1-0.5-0.3-0.6-0.5
			c-0.1-0.2-0.2-0.5-0.2-0.8c0-0.5,0.2-0.9,0.5-1.1c0.3-0.3,0.8-0.4,1.4-0.4l0.1,0.8c-0.3,0-0.6,0.1-0.7,0.2
			c-0.1,0.1-0.2,0.3-0.2,0.5c0,0.2,0.1,0.4,0.2,0.6c0.1,0.1,0.2,0.1,0.4,0.1c0.2,0,0.3,0,0.4-0.1c0.1-0.1,0.3-0.4,0.4-0.8
			c0.1-0.4,0.3-0.7,0.5-0.9c0.2-0.2,0.4-0.3,0.6-0.4c0.3-0.1,0.6-0.2,1-0.2c0.4,0,0.7,0.1,1,0.2c0.3,0.1,0.5,0.3,0.7,0.6
			c0.2,0.2,0.2,0.5,0.2,0.9c0,0.5-0.2,0.9-0.6,1.2C15.6,106.3,15.1,106.5,14.4,106.5z"/>
		<path fill-rule="evenodd" clip-rule="evenodd" fill="#252324" d="M10.2,102.6l0-0.8l3.4,0c0.5,0,0.9,0,1,0c0.3,0,0.5-0.1,0.6-0.2
			c0.2-0.1,0.2-0.3,0.2-0.5c0-0.2-0.1-0.4-0.2-0.5c-0.1-0.1-0.3-0.2-0.5-0.2c-0.2,0-0.6,0-1,0l-3.5,0l0-0.8l3.3,0
			c0.8,0,1.3,0,1.6,0.1c0.3,0,0.6,0.1,0.8,0.2c0.2,0.1,0.4,0.3,0.5,0.5c0.1,0.2,0.2,0.4,0.2,0.8c0,0.4-0.1,0.7-0.2,0.9
			c-0.1,0.2-0.3,0.4-0.5,0.5c-0.2,0.1-0.5,0.2-0.7,0.2c-0.4,0-0.9,0.1-1.6,0.1L10.2,102.6z"/>
		<path fill-rule="evenodd" clip-rule="evenodd" fill="#252324" d="M16.5,98.5l-6.2-0.1l0-1.3c0-0.5,0-0.8,0.1-1
			c0.1-0.2,0.3-0.4,0.6-0.6c0.3-0.2,0.7-0.2,1.2-0.2c0.4,0,0.7,0.1,1,0.1c0.3,0.1,0.5,0.2,0.6,0.4c0.1,0.1,0.2,0.3,0.3,0.4
			c0.1,0.2,0.1,0.5,0.1,0.8l0,0.5l2.4,0L16.5,98.5z M11.3,97.7l1.8,0l0-0.4c0-0.3,0-0.5-0.1-0.6c-0.1-0.1-0.2-0.2-0.3-0.3
			c-0.1-0.1-0.3-0.1-0.5-0.1c-0.2,0-0.4,0-0.6,0.1c-0.2,0.1-0.2,0.2-0.3,0.3c0,0.1-0.1,0.3-0.1,0.6L11.3,97.7z"/>
		<path fill-rule="evenodd" clip-rule="evenodd" fill="#252324" d="M16.5,94.8l-6.2-0.1l0-3l1.1,0l0,2.2l1.4,0l0-2l1,0l0,2l1.7,0
			l0-2.2l1.1,0L16.5,94.8z"/>
		<path fill-rule="evenodd" clip-rule="evenodd" fill="#252324" d="M16.5,91L10.3,91l0-1.7c0-0.4,0.1-0.7,0.2-0.9
			c0.1-0.2,0.3-0.3,0.6-0.5c0.3-0.1,0.6-0.2,1-0.2c0.5,0,0.9,0.1,1.2,0.3c0.3,0.2,0.5,0.4,0.6,0.8c0.2-0.2,0.3-0.3,0.5-0.4
			c0.2-0.1,0.5-0.3,1-0.5l1.2-0.5l0,1L15.2,89c-0.5,0.2-0.8,0.3-0.9,0.4c-0.1,0.1-0.2,0.1-0.3,0.2c0,0.1-0.1,0.2-0.1,0.4l0,0.2
			l2.6,0L16.5,91z M12.9,90.2l0-0.6c0-0.4,0-0.6-0.1-0.7c0-0.1-0.1-0.2-0.2-0.2c-0.1,0-0.3-0.1-0.5-0.1c-0.2,0-0.4,0-0.5,0.1
			c-0.1,0.1-0.2,0.2-0.3,0.3c0,0.1,0,0.3,0,0.6l0,0.6L12.9,90.2z"/>
		<path fill-rule="evenodd" clip-rule="evenodd" fill="#252324" d="M16.6,87L10.3,87l0-0.8l6.2,0.1L16.6,87z"/>
		<path fill-rule="evenodd" clip-rule="evenodd" fill="#252324" d="M16.6,85.4l-6.2-0.1l0-0.8l4.2-1.6l-4.2,0l0-0.7l6.2,0.1l0,0.8
			l-4.1,1.6l4.1,0L16.6,85.4z"/>
		<path fill-rule="evenodd" clip-rule="evenodd" fill="#252324" d="M16.6,80.5l-5.2-0.1l0,1.2l-1.1,0l0-3.2l1.1,0l0,1.2l5.2,0
			L16.6,80.5z"/>
		<path fill-rule="evenodd" clip-rule="evenodd" fill="#252324" d="M16.7,77.9l-6.2-0.1l0-3l1.1,0l0,2.1l1.4,0l0-2l1,0l0,2l1.7,0
			l0-2.2l1.1,0L16.7,77.9z"/>
		<path fill-rule="evenodd" clip-rule="evenodd" fill="#252324" d="M16.7,74.2l-6.2-0.1l0-0.8l4.2-1.6l-4.2,0l0-0.8l6.2,0.1l0,0.8
			l-4.1,1.6l4.1,0L16.7,74.2z"/>
		<path fill-rule="evenodd" clip-rule="evenodd" fill="#252324" d="M10.5,70.1l0-1.5c0-0.3,0-0.6,0.1-0.8c0.1-0.2,0.3-0.4,0.6-0.6
			c0.3-0.2,0.6-0.3,1-0.4c0.4-0.1,0.9-0.2,1.5-0.1c0.5,0,0.9,0.1,1.3,0.2c0.4,0.1,0.8,0.2,1.1,0.4c0.2,0.1,0.4,0.3,0.5,0.6
			c0.1,0.2,0.1,0.4,0.1,0.7l0,1.5L10.5,70.1z M11.5,69.3l4.1,0l0-0.6c0-0.2,0-0.4,0-0.5c-0.1-0.1-0.1-0.2-0.3-0.3
			c-0.1-0.1-0.3-0.2-0.6-0.2c-0.3-0.1-0.7-0.1-1.1-0.1c-0.5,0-0.9,0-1.1,0.1c-0.3,0-0.5,0.1-0.6,0.2c-0.1,0.1-0.2,0.2-0.3,0.4
			c0,0.1-0.1,0.3-0.1,0.7L11.5,69.3z"/>
		<path fill-rule="evenodd" clip-rule="evenodd" fill="#252324" d="M16.8,66.1L10.5,66l0-3l1.1,0l0,2.2l1.4,0l0-2l1,0l0,2l1.7,0
			l0-2.2l1.1,0L16.8,66.1z"/>
		<path fill-rule="evenodd" clip-rule="evenodd" fill="#252324" d="M16.8,62.3l-6.2-0.1l0-0.8l4.2-1.6l-4.2,0l0-0.8l6.2,0.1l0,0.8
			l-4.1,1.6l4.1,0L16.8,62.3z"/>
		<path fill-rule="evenodd" clip-rule="evenodd" fill="#252324" d="M14.6,55.7l0.4-0.8c0.7,0.1,1.2,0.3,1.5,0.6
			c0.3,0.3,0.5,0.6,0.5,1.1c0,0.5-0.3,1-0.9,1.3c-0.6,0.3-1.3,0.5-2.3,0.5c-1,0-1.8-0.2-2.4-0.5c-0.6-0.4-0.9-0.8-0.8-1.4
			c0-0.5,0.2-0.9,0.7-1.2c0.3-0.2,0.6-0.3,1.1-0.4l0.3,0.8c-0.3,0-0.6,0.1-0.8,0.3c-0.2,0.1-0.3,0.3-0.3,0.5c0,0.3,0.2,0.5,0.5,0.7
			c0.3,0.2,0.9,0.3,1.6,0.3c0.8,0,1.3-0.1,1.7-0.3c0.3-0.2,0.5-0.4,0.5-0.7c0-0.2-0.1-0.4-0.3-0.6C15.3,55.9,15,55.7,14.6,55.7z"/>
		<path fill-rule="evenodd" clip-rule="evenodd" fill="#252324" d="M16.9,54.2l-6.2-0.1l0-0.8l6.2,0.1L16.9,54.2z"/>
		<path fill-rule="evenodd" clip-rule="evenodd" fill="#252324" d="M16.9,49l0,0.9l-1.4,0.3l0,1.6l1.4,0.4l0,0.8l-6.2-1.6l0-0.8
			L16.9,49z M14.4,50.5L12.1,51l2.3,0.6L14.4,50.5z"/>
		<path fill-rule="evenodd" clip-rule="evenodd" fill="#252324" d="M16.9,47.2l-6.2-0.1l0-2.8l1.1,0l0,1.9l1.5,0l0-1.7l1.1,0l0,1.7
			l2.6,0L16.9,47.2z"/>
		<path fill-rule="evenodd" clip-rule="evenodd" fill="#252324" d="M17,43.8l-6.2-0.1l0-0.8L17,43L17,43.8z"/>
		<path fill-rule="evenodd" clip-rule="evenodd" fill="#252324" d="M17,42.2l-6.2-0.1l0-0.8l4.2-1.6l-4.2,0l0-0.8L17,39l0,0.8
			l-4.1,1.6l4.1,0L17,42.2z"/>
		<path fill-rule="evenodd" clip-rule="evenodd" fill="#252324" d="M17,34.6l0,0.9l-1.4,0.4l0,1.6l1.4,0.3l0,0.9L10.8,37l0-0.9
			L17,34.6z M14.5,36l-2.3,0.5l2.3,0.6L14.5,36z"/>
		<path fill-rule="evenodd" clip-rule="evenodd" fill="#252324" d="M17,34.1l-6.2-0.1l0-0.8l4.2-1.6l-4.2,0l0-0.8l6.2,0.1l0,0.8
			L13,33.3l4.1,0L17,34.1z"/>
		<path fill-rule="evenodd" clip-rule="evenodd" fill="#252324" d="M14.8,27.5l0.4-0.8c0.7,0.1,1.2,0.3,1.5,0.6
			c0.3,0.3,0.5,0.6,0.5,1.1c0,0.5-0.3,1-0.9,1.3C15.8,30,15,30.2,14,30.2c-1,0-1.8-0.2-2.4-0.5c-0.6-0.4-0.9-0.8-0.8-1.4
			c0-0.5,0.2-0.9,0.7-1.2c0.3-0.2,0.6-0.3,1.1-0.4l0.3,0.8c-0.3,0-0.6,0.1-0.8,0.3c-0.2,0.1-0.3,0.3-0.3,0.5c0,0.3,0.2,0.6,0.5,0.7
			c0.3,0.2,0.9,0.3,1.6,0.3c0.8,0,1.3-0.1,1.7-0.3c0.3-0.2,0.5-0.4,0.5-0.7c0-0.2-0.1-0.4-0.3-0.5C15.6,27.7,15.3,27.5,14.8,27.5z"
			/>
		<path fill-rule="evenodd" clip-rule="evenodd" fill="#252324" d="M17.1,26L10.9,26l0-0.8l6.2,0.1L17.1,26z"/>
		<path fill-rule="evenodd" clip-rule="evenodd" fill="#252324" d="M17.1,24.4l-6.2-0.1l0-3l1.1,0l0,2.2l1.4,0l0-2l1,0l0,2l1.7,0
			l0-2.3l1.1,0L17.1,24.4z"/>
		<path fill-rule="evenodd" clip-rule="evenodd" fill="#252324" d="M17.2,20.7l-6.2-0.1l0-1.7c0-0.4,0.1-0.8,0.2-1
			c0.1-0.2,0.3-0.4,0.6-0.5c0.3-0.1,0.6-0.2,1-0.2c0.5,0,0.9,0.1,1.2,0.3c0.3,0.2,0.5,0.4,0.6,0.8c0.2-0.2,0.3-0.3,0.5-0.4
			c0.2-0.1,0.5-0.3,1-0.4l1.2-0.5l0,1l-1.4,0.6C15.3,18.8,15,19,14.9,19c-0.1,0.1-0.2,0.2-0.3,0.2c0,0.1-0.1,0.2-0.1,0.4l0,0.2
			l2.6,0L17.2,20.7z M13.6,19.8l0-0.6c0-0.4,0-0.6-0.1-0.7c0-0.1-0.1-0.2-0.2-0.2c-0.1,0-0.3-0.1-0.5-0.1c-0.2,0-0.4,0-0.5,0.1
			c-0.1,0.1-0.2,0.2-0.3,0.3c0,0.1,0,0.3,0,0.6l0,0.6L13.6,19.8z"/>
		<path fill-rule="evenodd" clip-rule="evenodd" fill="#252324" d="M17.2,13l0,0.9l-1.4,0.3l0,1.6l1.4,0.3l0,0.9L11,15.4l0-0.9
			L17.2,13z M14.7,14.5L12.4,15l2.3,0.6L14.7,14.5z"/>
		<path fill-rule="evenodd" clip-rule="evenodd" fill="#252324" d="M20.4,79.5l0-1.5c0-0.3,0.1-0.6,0.1-0.8c0.1-0.2,0.3-0.4,0.6-0.6
			c0.3-0.2,0.6-0.3,1-0.4c0.4-0.1,0.9-0.1,1.5-0.1c0.5,0,0.9,0.1,1.3,0.1c0.4,0.1,0.8,0.3,1.1,0.5c0.2,0.1,0.4,0.3,0.5,0.6
			c0.1,0.2,0.1,0.4,0.1,0.7l0,1.5L20.4,79.5z M21.5,78.7l4.1,0l0-0.6c0-0.2,0-0.4-0.1-0.5c0-0.1-0.1-0.2-0.3-0.3
			c-0.1-0.1-0.3-0.2-0.6-0.2C24.4,77,24,77,23.6,77c-0.5,0-0.9,0-1.1,0.1c-0.3,0-0.5,0.1-0.6,0.2c-0.1,0.1-0.2,0.2-0.3,0.4
			c0,0.1-0.1,0.3-0.1,0.7L21.5,78.7z"/>
		<path fill-rule="evenodd" clip-rule="evenodd" fill="#252324" d="M26.7,75.5l-6.2-0.1l0-3l1.1,0l0,2.2l1.4,0l0-2l1,0l0,2l1.7,0
			l0-2.3l1,0L26.7,75.5z"/>
		<path fill-rule="evenodd" clip-rule="evenodd" fill="#252324" d="M24.5,67.6l0.4-0.8c0.7,0.1,1.2,0.3,1.5,0.6
			c0.3,0.3,0.5,0.6,0.5,1.1c0,0.5-0.3,1-0.9,1.3c-0.6,0.3-1.3,0.5-2.3,0.5c-1,0-1.8-0.2-2.4-0.5c-0.6-0.3-0.8-0.8-0.8-1.4
			c0-0.5,0.2-0.9,0.7-1.2c0.3-0.2,0.6-0.3,1.1-0.4l0.3,0.8c-0.3,0-0.6,0.1-0.8,0.3c-0.2,0.1-0.3,0.3-0.3,0.5c0,0.3,0.2,0.5,0.5,0.7
			c0.3,0.2,0.9,0.3,1.6,0.3c0.8,0,1.3-0.1,1.7-0.2c0.3-0.2,0.5-0.4,0.5-0.7c0-0.2-0.1-0.4-0.3-0.6C25.3,67.8,24.9,67.7,24.5,67.6z"
			/>
		<path fill-rule="evenodd" clip-rule="evenodd" fill="#252324" d="M23.7,66.3c-0.6,0-1.2-0.1-1.6-0.2c-0.3-0.1-0.6-0.2-0.9-0.4
			c-0.3-0.2-0.4-0.3-0.6-0.5c-0.2-0.2-0.2-0.5-0.2-0.9c0-0.6,0.3-1.1,0.9-1.4c0.6-0.4,1.4-0.5,2.4-0.5c1,0,1.8,0.2,2.3,0.5
			c0.6,0.4,0.8,0.8,0.8,1.4c0,0.6-0.3,1.1-0.9,1.4C25.5,66.1,24.7,66.3,23.7,66.3z M23.7,65.4c0.7,0,1.2-0.1,1.6-0.3
			c0.4-0.2,0.5-0.5,0.5-0.8c0-0.3-0.1-0.6-0.5-0.8c-0.3-0.2-0.9-0.3-1.6-0.3c-0.7,0-1.2,0.1-1.6,0.3c-0.4,0.2-0.5,0.5-0.5,0.8
			c0,0.3,0.2,0.6,0.5,0.8C22.4,65.3,22.9,65.4,23.7,65.4z"/>
		<path fill-rule="evenodd" clip-rule="evenodd" fill="#252324" d="M26.8,61.7l-6.2-0.1l0-0.8l5.1,0l0-2l1,0L26.8,61.7z"/>
		<path fill-rule="evenodd" clip-rule="evenodd" fill="#252324" d="M23.8,58.5c-0.6,0-1.2-0.1-1.6-0.2c-0.3-0.1-0.6-0.2-0.9-0.4
			c-0.3-0.2-0.4-0.3-0.6-0.5c-0.2-0.2-0.2-0.5-0.2-0.9c0-0.6,0.3-1.1,0.9-1.4c0.6-0.3,1.4-0.5,2.4-0.5c1,0,1.8,0.2,2.3,0.5
			c0.6,0.4,0.8,0.8,0.8,1.4c0,0.6-0.3,1.1-0.9,1.4C25.5,58.3,24.7,58.5,23.8,58.5z M23.7,57.6c0.7,0,1.2-0.1,1.6-0.3
			c0.4-0.2,0.5-0.5,0.5-0.8c0-0.3-0.1-0.6-0.5-0.8c-0.3-0.2-0.9-0.3-1.6-0.3c-0.7,0-1.2,0.1-1.6,0.3c-0.4,0.2-0.5,0.5-0.5,0.8
			c0,0.3,0.2,0.6,0.5,0.8C22.5,57.5,23,57.6,23.7,57.6z"/>
		<path fill-rule="evenodd" clip-rule="evenodd" fill="#252324" d="M26.9,53.9l-6.2-0.1l0-1.2l4.3-0.7l-4.2-0.8l0-1.2l6.2,0.1l0,0.7
			l-4.9,0l4.9,0.8l0,0.8L22,53.1l4.9,0L26.9,53.9z"/>
		<path fill-rule="evenodd" clip-rule="evenodd" fill="#252324" d="M20.7,49.2l0-1.6c0-0.3,0-0.5,0.1-0.7c0-0.2,0.1-0.3,0.3-0.4
			c0.1-0.1,0.3-0.2,0.5-0.3c0.2-0.1,0.5-0.1,0.7-0.1c0.3,0,0.6,0.1,0.8,0.2c0.2,0.1,0.4,0.3,0.5,0.4c0.1-0.2,0.3-0.4,0.6-0.6
			c0.3-0.1,0.6-0.2,0.9-0.2c0.3,0,0.6,0,0.8,0.1c0.3,0.1,0.5,0.2,0.6,0.3c0.2,0.1,0.3,0.3,0.3,0.5c0,0.1,0,0.5,0,1l0,1.4L20.7,49.2z
			 M21.7,48.4l1.4,0l0-0.5c0-0.3,0-0.5,0-0.6c0-0.1-0.1-0.3-0.2-0.3c-0.1-0.1-0.3-0.1-0.5-0.1c-0.2,0-0.3,0-0.5,0.1
			c-0.1,0.1-0.2,0.2-0.2,0.3c0,0.1,0,0.3,0,0.7L21.7,48.4z M24.2,48.4l1.7,0l0-0.8c0-0.3,0-0.5,0-0.5c0-0.1-0.1-0.2-0.2-0.3
			c-0.1-0.1-0.3-0.1-0.5-0.1c-0.2,0-0.4,0-0.5,0.1c-0.1,0.1-0.2,0.1-0.3,0.3c0,0.1-0.1,0.4-0.1,0.7L24.2,48.4z"/>
		<path fill-rule="evenodd" clip-rule="evenodd" fill="#252324" d="M26.9,45.2l-6.2-0.1l0-0.8l6.2,0.1L26.9,45.2z"/>
		<path fill-rule="evenodd" clip-rule="evenodd" fill="#252324" d="M27,40l0,0.9l-1.4,0.3l0,1.6l1.4,0.3l0,0.9l-6.2-1.6l0-0.9L27,40
			z M24.5,41.5L22.2,42l2.3,0.6L24.5,41.5z"/>
		<path fill-rule="evenodd" clip-rule="evenodd" fill="#252324" d="M21.9,158.7l-7.2,1.6l0-1l5.3-1.1l-5.3-1.2l0-1l7.2,1.7
			L21.9,158.7z"/>
		<path fill-rule="evenodd" clip-rule="evenodd" fill="#252324" d="M21.9,153.2l-7.2-0.1l0-0.9l7.2,0.1L21.9,153.2z"/>
		<path fill-rule="evenodd" clip-rule="evenodd" fill="#252324" d="M19.4,146.8l-1.2,0l0-2l2.9,0c0.3,0.2,0.5,0.5,0.8,0.9
			c0.2,0.4,0.3,0.8,0.3,1.1c0,0.5-0.2,0.9-0.5,1.3c-0.3,0.4-0.8,0.6-1.4,0.8c-0.6,0.2-1.2,0.3-1.9,0.3c-0.7,0-1.4-0.1-2-0.3
			c-0.6-0.2-1-0.5-1.3-0.9c-0.2-0.3-0.3-0.7-0.3-1.1c0-0.6,0.2-1,0.6-1.4c0.4-0.3,0.9-0.5,1.5-0.6l0.3,0.9c-0.4,0.1-0.6,0.2-0.8,0.4
			c-0.2,0.2-0.3,0.4-0.3,0.7c0,0.4,0.2,0.7,0.6,1c0.4,0.3,1,0.4,1.8,0.4c0.9,0,1.5-0.1,1.9-0.4c0.4-0.2,0.6-0.6,0.7-0.9
			c0-0.2-0.1-0.4-0.2-0.6c-0.1-0.2-0.2-0.4-0.4-0.5l-0.9,0L19.4,146.8z"/>
		<path fill-rule="evenodd" clip-rule="evenodd" fill="#252324" d="M22,141.5l-7.2-0.1l0-0.9l7.2,0.1L22,141.5z"/>
		<path fill-rule="evenodd" clip-rule="evenodd" fill="#252324" d="M22.1,137.2l-7.1-0.1l0-0.9l5.9,0.1l0-2.3l1.2,0L22.1,137.2z"/>
		<path fill-rule="evenodd" clip-rule="evenodd" fill="#252324" d="M22.2,126.7l0,1l-1.6,0.4l0,1.9l1.6,0.4l0,1l-7.2-1.9l0-1
			L22.2,126.7z M19.3,128.4l-2.7,0.6l2.6,0.7L19.3,128.4z"/>
		<path fill-rule="evenodd" clip-rule="evenodd" fill="#252324" d="M15,123.7l0-1.7c0-0.4,0.1-0.7,0.1-0.9c0.1-0.3,0.4-0.5,0.7-0.7
			c0.3-0.2,0.7-0.3,1.2-0.4c0.5-0.1,1-0.1,1.7-0.1c0.6,0,1.1,0.1,1.5,0.1c0.5,0.1,0.9,0.3,1.3,0.5c0.2,0.2,0.4,0.4,0.6,0.7
			c0.1,0.2,0.1,0.5,0.1,0.8l0,1.8L15,123.7z M16.2,122.8l4.7,0l0-0.7c0-0.3,0-0.4-0.1-0.6c-0.1-0.2-0.1-0.3-0.3-0.4
			c-0.1-0.1-0.4-0.2-0.7-0.2c-0.3-0.1-0.8-0.1-1.3-0.1c-0.6,0-1,0-1.3,0.1c-0.3,0.1-0.5,0.2-0.7,0.3c-0.2,0.1-0.3,0.3-0.3,0.4
			c0,0.1-0.1,0.4-0.1,0.8L16.2,122.8z"/>
		<path fill-rule="evenodd" clip-rule="evenodd" fill="#252324" d="M18.7,116.8c-0.7,0-1.3-0.1-1.8-0.2c-0.4-0.1-0.7-0.3-1-0.4
			c-0.3-0.2-0.5-0.4-0.6-0.6c-0.2-0.3-0.3-0.6-0.3-1c0-0.7,0.4-1.2,1-1.6c0.7-0.4,1.6-0.6,2.7-0.6c1.1,0,2.1,0.2,2.7,0.6
			c0.6,0.4,1,1,1,1.6c0,0.7-0.3,1.3-1,1.6C20.7,116.6,19.9,116.8,18.7,116.8z M18.7,115.9c0.8,0,1.4-0.1,1.8-0.3
			c0.4-0.2,0.6-0.6,0.6-0.9c0-0.4-0.2-0.7-0.6-0.9c-0.4-0.3-1-0.4-1.9-0.4c-0.8,0-1.4,0.1-1.8,0.3c-0.4,0.2-0.6,0.5-0.6,0.9
			c0,0.4,0.2,0.7,0.6,0.9C17.2,115.7,17.9,115.9,18.7,115.9z"/>
		
			<rect x="-18.6" y="135.6" transform="matrix(8.944706e-03 -1 1 8.944706e-03 -128.2203 143.1716)" fill-rule="evenodd" clip-rule="evenodd" fill="#252324" width="53.4" height="1.4"/>
		
			<rect x="1.2" y="135.8" transform="matrix(8.944587e-03 -1 1 8.944587e-03 -108.7782 163.1424)" fill-rule="evenodd" clip-rule="evenodd" fill="#252324" width="53.4" height="1.4"/>
	</g>
</g>
</svg>
